<svg id="Calque_1" data-name="Calque 1" xmlns="http://www.w3.org/2000/svg" viewBox="0 0 1920 1080"><path d="M943.1,521.12h34c-.08.92-.15,1.82-.23,2.73-.29,3.25-.57,6.5-.86,9.75l-1,10.8c-.28,3.21-.57,6.41-.84,9.61-.09,1.09-.07,1.09-1.1,1.38q-6.23,1.77-12.43,3.56a2.08,2.08,0,0,1-1.21,0q-6.45-1.86-12.91-3.69c-.31-.09-.46-.2-.49-.55-.27-3.25-.57-6.51-.86-9.76l-1-10.85-.84-9.56C943.3,523.4,943.21,522.29,943.1,521.12Zm2.22,2a4.21,4.21,0,0,0,0,.51c.41,4.71.84,9.42,1.25,14.14q.67,7.63,1.33,15.28a.62.62,0,0,0,.53.64c3.72,1,7.42,2.12,11.14,3.16a2.11,2.11,0,0,0,1.06,0c3.71-1,7.42-2.11,11.13-3.16a.59.59,0,0,0,.51-.61c.07-1,.16-2,.25-3q.53-5.94,1.06-11.89l1.08-12.2c.08-.93.16-1.87.24-2.83Z"/><path d="M951.9,543.12h4c0,.72.08,1.41.09,2.11a.45.45,0,0,0,.37.49c1.15.38,2.29.79,3.45,1.17a1.06,1.06,0,0,0,.56,0c1.19-.39,2.37-.79,3.55-1.21.11,0,.28-.17.28-.27.12-1.42.21-2.84.31-4.31h-8.79l-.22-4h9.21l.3-4H951.21l-.31-4h18.29c-.07,1.29-.15,2.57-.23,3.84l-.66,10.78c-.1,1.51-.19,3-.3,4.54a.57.57,0,0,1-.31.4c-2.44.82-4.89,1.62-7.35,2.42a.92.92,0,0,1-.52,0l-7.25-2.39c-.14-.05-.35-.2-.36-.31C952.09,546.65,952,544.91,951.9,543.12Z"/></svg>