<?xml version="1.0" encoding="utf-8"?>
<!-- Generator: Adobe Illustrator 25.0.0, SVG Export Plug-In . SVG Version: 6.00 Build 0)  -->
<svg version="1.1" id="Calque_1" xmlns="http://www.w3.org/2000/svg" xmlns:xlink="http://www.w3.org/1999/xlink" x="0px" y="0px"
	 viewBox="0 0 1920 1080" style="enable-background:new 0 0 1920 1080;" xml:space="preserve">
<path d="M985,483.9c0-0.2-0.1-0.4,0.3-0.3c0.1,0,0.1,0,0.2,0h49.4c-0.1,1.1-0.2,2.2-0.3,3.3c-0.3,3.9-0.7,7.8-1,11.7
	s-0.7,7.8-1.1,11.8c-0.4,3.9-0.7,7.8-1,11.7c-0.3,4-0.7,7.9-1,11.9c0,0.3-0.2,0.6-0.5,0.7c-6.5,1.8-13,3.6-19.4,5.4
	c-0.3,0.1-0.7,0.1-1,0c-6.4-1.8-12.8-3.6-19.3-5.3c-0.5-0.1-0.7-0.3-0.7-0.8c0-0.5,0-1-0.1-1.4c-0.4-4.7-0.9-9.5-1.3-14.2
	c-0.4-4.7-0.8-9.5-1.3-14.2l-1.5-17.2C985.2,485.7,985.1,484.8,985,483.9z M1030.3,487.8h-40.6c0.1,0.9,0.1,1.8,0.2,2.6l1.2,13
	l1.1,13c0.4,4.8,0.9,9.6,1.3,14.4c0,0.3,0.2,0.6,0.5,0.6l15.6,4.3c0.2,0.1,0.5,0.1,0.7,0l15.7-4.3c0.3-0.1,0.5-0.2,0.5-0.6
	c0.1-1.4,0.2-2.7,0.3-4.1c0.3-3.5,0.6-6.9,0.9-10.4c0.3-4,0.7-8,1.1-11.9c0.3-3.5,0.6-7,1-10.5
	C1030,491.8,1030.1,489.8,1030.3,487.8z"/>
<path d="M996,512.8l-1.7-18.8h31.2l-0.6,6.2h-23.9l0.6,6.4h22.7c-0.2,1.8-0.3,3.5-0.4,5.2c-0.3,3.5-0.6,7-1,10.6c-0.1,1-0.2,2-0.2,3
	c0,0.3-0.2,0.5-0.5,0.6c-4,1.1-8,2.2-12,3.3c-0.2,0.1-0.5,0.1-0.7,0l-12-3.3c-0.3-0.1-0.5-0.2-0.5-0.5c-0.2-2.9-0.5-5.8-0.8-8.6
	c0-0.2,0-0.5,0-0.7h6.2c0.1,1.1,0.2,2.1,0.3,3.2c0.1,0.6-0.1,1.3,0.2,1.7s1,0.4,1.6,0.5l4.9,1.3c0.2,0.1,0.5,0.1,0.7,0
	c2.1-0.6,4.2-1.1,6.3-1.7c0.2-0.1,0.3-0.2,0.4-0.4c0.2-2.6,0.5-5.1,0.7-7.8L996,512.8z"/>
</svg>
