<svg id="Calque_1" data-name="Calque 1" xmlns="http://www.w3.org/2000/svg" viewBox="0 0 1920 1080"><path d="M985,483.89c0-.19-.07-.43.28-.34a.81.81,0,0,0,.22,0h49.39c-.11,1.09-.22,2.19-.32,3.29q-.52,5.85-1,11.7t-1.06,11.76q-.53,5.87-1,11.71c-.35,4-.71,7.91-1,11.87a.64.64,0,0,1-.54.68c-6.48,1.78-12.95,3.59-19.43,5.37a2,2,0,0,1-1,0q-9.63-2.67-19.27-5.34c-.49-.14-.7-.33-.68-.85a11.62,11.62,0,0,0-.11-1.43q-.64-7.11-1.28-14.23c-.43-4.74-.84-9.49-1.26-14.23l-1.53-17.2C985.23,485.74,985.11,484.81,985,483.89Zm45.3,3.87H989.68c.08.9.14,1.76.22,2.61l1.17,13,1.14,13c.43,4.79.87,9.59,1.28,14.39a.6.6,0,0,0,.53.63l15.6,4.31a1.35,1.35,0,0,0,.69,0l15.66-4.33c.33-.09.49-.22.52-.58.1-1.36.23-2.71.35-4.07q.45-5.19.92-10.38.52-6,1.06-11.92c.32-3.52.64-7,1-10.55C1030,491.82,1030.12,489.83,1030.3,487.76Z"/><path d="M996.05,512.84,994.37,494h31.24l-.56,6.22h-23.86l.56,6.38h22.73c-.15,1.78-.3,3.48-.45,5.18q-.46,5.26-.95,10.55c-.08,1-.18,2-.25,3a.58.58,0,0,1-.5.59c-4,1.09-8,2.2-12,3.3a1.54,1.54,0,0,1-.74,0l-12-3.31c-.31-.08-.46-.2-.49-.54-.24-2.88-.51-5.75-.76-8.63,0-.23,0-.47,0-.73h6.2c.09,1.06.19,2.12.29,3.17.06.59-.06,1.31.25,1.71s1,.38,1.57.53l4.9,1.31a1.35,1.35,0,0,0,.69,0q3.15-.83,6.28-1.7a.66.66,0,0,0,.4-.4c.24-2.57.46-5.13.69-7.76Z"/></svg>