<?xml version="1.0" encoding="utf-8"?>
<!-- Generator: Adobe Illustrator 25.0.0, SVG Export Plug-In . SVG Version: 6.00 Build 0)  -->
<svg version="1.1" id="Calque_1" xmlns="http://www.w3.org/2000/svg" xmlns:xlink="http://www.w3.org/1999/xlink" x="0px" y="0px"
	 viewBox="0 0 1920 1080" style="enable-background:new 0 0 1920 1080;" xml:space="preserve">
<path d="M938,515.1h44.2c0.5,0.2,0.8,0.8,0.7,1.4c-0.2,1.7-0.3,3.4-0.5,5.1l-1.9,18.5c-0.6,5.8-1.2,11.7-1.7,17.5
	c0,0.6-0.4,1.1-1,1.2l-15.8,5.9c-0.6,0.2-1.2,0.2-1.8,0l-18.1-6c-0.5-0.1-0.8-0.6-0.8-1.1c-0.4-3.9-0.8-7.9-1.2-11.8
	c-0.5-4.7-0.9-9.4-1.4-14.1c-0.5-5-1-10.1-1.5-15.1C937,516,937.4,515.3,938,515.1z M972.1,527.8l-0.1,0.5c-0.2,0.8-0.4,1.6-0.5,2.4
	c-0.1,0.5,0.2,1.1,0.7,1.2c0,0,0,0,0,0c0.5,0.2,1.1-0.1,1.3-0.6c0,0,0,0,0-0.1c0-0.1,0.1-0.2,0.1-0.4c0.3-1.2,0.6-2.3,0.9-3.4
	s0-1.4-1-1.5c-0.1,0-0.3,0-0.4,0h-10.2c-0.9,0-1.2,0.3-1.2,1.2v12.1c0,0.9,0.3,1.2,1.2,1.2h6.8c0,0.1,0,0.2,0,0.3c-0.5,3-1,6-1.6,9
	c-0.1,0.2-0.2,0.4-0.4,0.4c-1.1,0.4-2.2,0.8-3.3,1.1c-0.6,0.2-1.2,0.4-1.8,0.6c-0.5,0.1-0.8,0.6-0.7,1.1c0.1,0.5,0.6,0.9,1.1,0.8
	c0.2,0,0.3,0,0.5-0.1l5.9-2c0.5-0.1,0.8-0.5,0.9-1c0.7-3.7,1.3-7.3,2-11c0.2-1-0.2-1.5-1.3-1.5h-7v-10.4H972.1z M958,551.2l-0.5-0.1
	c-1.5-0.4-3-0.8-4.5-1.2c-0.3,0-0.6-0.3-0.6-0.6c-0.2-1.3-0.5-2.5-0.7-3.8c0-0.2-0.1-0.4-0.2-0.6c-0.2-0.4-0.7-0.7-1.1-0.5
	c0,0,0,0-0.1,0c-0.6,0.2-0.8,0.6-0.7,1.1c0.3,1.7,0.7,3.4,1,5.1c0.1,0.5,0.5,0.9,1,1.1c2.4,0.7,4.8,1.3,7.2,2c0.4,0.1,0.8-0.1,1-0.4
	c0.2-0.3,0.2-0.7,0.2-1c0-8.4,0-16.9,0-25.3c0-1.1-0.3-1.4-1.3-1.4h-12.4c-0.5,0-0.8,0.4-0.9,0.9c-0.1,0.7,0.3,1.2,1.2,1.2H958
	V551.2z"/>
</svg>
