<svg id="Calque_1" data-name="Calque 1" xmlns="http://www.w3.org/2000/svg" viewBox="0 0 1920 1080"><path d="M938,515.1h44.15a1.26,1.26,0,0,1,.74,1.39c-.19,1.71-.35,3.42-.52,5.13l-1.86,18.51c-.58,5.84-1.18,11.69-1.73,17.54a1.29,1.29,0,0,1-1,1.21L962,564.81a2.54,2.54,0,0,1-1.8,0l-18.08-6a1.09,1.09,0,0,1-.83-1.06q-.57-5.91-1.18-11.82-.71-7.07-1.42-14.14c-.51-5-1-10.08-1.52-15.12A1.32,1.32,0,0,1,938,515.1Zm34.06,12.7-.09.48c-.17.81-.37,1.62-.5,2.43a1,1,0,0,0,.74,1.21,1,1,0,0,0,1.28-.69,2.26,2.26,0,0,0,.11-.37c.29-1.15.58-2.29.86-3.44s0-1.38-1-1.49a2.55,2.55,0,0,0-.39,0H962.91c-.86,0-1.2.35-1.2,1.23v12.08c0,.9.33,1.23,1.24,1.23h6.83a2.59,2.59,0,0,1,0,.28c-.52,3-1,6-1.57,9a.73.73,0,0,1-.42.44c-1.1.39-2.21.75-3.32,1.12-.62.2-1.24.39-1.84.62a1,1,0,0,0-.74,1.12,1.06,1.06,0,0,0,1.13.8,2,2,0,0,0,.48-.08l5.9-2a1.23,1.23,0,0,0,.87-1q1-5.5,2-11c.18-1.05-.23-1.54-1.3-1.54H964V527.8ZM958,551.25l-.45-.1c-1.48-.4-3-.81-4.46-1.19a.66.66,0,0,1-.58-.64c-.21-1.28-.45-2.55-.69-3.83a2.06,2.06,0,0,0-.2-.59.87.87,0,0,0-1.19-.45c-.58.22-.85.6-.74,1.14.33,1.69.67,3.37,1,5.06a1.34,1.34,0,0,0,1,1.06q3.57,1,7.15,2a.81.81,0,0,0,1-.44,2.31,2.31,0,0,0,.24-1q0-12.65,0-25.29c0-1.07-.28-1.36-1.35-1.36H946.37a.94.94,0,0,0-.86.9c-.06.74.34,1.15,1.15,1.15H958Z"/></svg>