<?xml version="1.0" encoding="utf-8"?>
<!-- Generator: Adobe Illustrator 25.0.0, SVG Export Plug-In . SVG Version: 6.00 Build 0)  -->
<svg version="1.1" id="Calque_1" xmlns="http://www.w3.org/2000/svg" xmlns:xlink="http://www.w3.org/1999/xlink" x="0px" y="0px"
	 viewBox="0 0 1920 1080" style="enable-background:new 0 0 1920 1080;" xml:space="preserve">
<path d="M985.7,538.7v2c-0.6,2.4-2,4.6-4,6.1c-1.1,0.9-2.4,1.7-3.6,2.3c-5,2.4-10.6,3.7-16.2,3.7c-6,0.3-12.1-0.8-17.6-3.2
	c-4-1.8-7.5-4.3-8.6-8.9v-2c0.6-2.4,2-4.6,4-6.1c1.2-0.9,2.4-1.7,3.7-2.4c4.9-2.4,10.4-3.6,15.8-3.7c6.1-0.3,12.2,0.8,17.8,3.2
	C981.1,531.7,984.6,534.1,985.7,538.7z M969.3,543.6c1.1,0,2.2,0,3.2,0c2.6,0,4.9-1.8,5.5-4.3c0.8-3-0.4-5-3.3-5.3
	c-2-0.2-4-0.2-6-0.1c-0.2,0-0.6,0.4-0.6,0.7c-0.6,2.7-1.1,5.3-1.6,8c-0.3,1.5-0.6,2.9-0.9,4.4h2.9L969.3,543.6z M946.9,543.6
	c1.1,0,2.2,0,3.2,0c2.5,0,4.7-1.7,5.4-4.1c0.9-3.1-0.4-5.2-3.5-5.5c-1.9-0.1-3.8-0.1-5.7,0c-0.2,0-0.6,0.4-0.7,0.7
	c-0.3,1.4-0.6,2.8-0.8,4.1l-1.6,8.2c2.8,0.5,2.8,0.5,3.3-2.2C946.7,544.5,946.8,544.1,946.9,543.6L946.9,543.6z M960.7,530.4
	c-0.6,0-1.2,0-1.8,0c-0.8-0.1-1.2,0.2-1.3,1.1c-0.2,1.6-0.6,3.1-0.9,4.7c-0.5,2.5-0.9,4.9-1.4,7.4h2.8c0.4-1.8,0.7-3.6,1.1-5.4
	c0.4-2.1,0.4-2.1,2.6-2.1c1.6,0,1.8,0.4,1.5,2c-0.3,1.8-0.7,3.6-1,5.5h2.9c0.4-2.1,0.8-4.2,1.2-6.3c0.3-1.9-0.4-2.9-2.3-3.2
	c-1.3-0.2-2.6-0.2-4-0.3L960.7,530.4z"/>
<path d="M969.7,541.5c0.3-1.7,0.6-3.2,0.9-4.7c0.2-0.4,0.5-0.6,0.8-0.7c0.7-0.1,1.3-0.1,2,0c0.9-0.1,1.8,0.6,1.8,1.6
	c0,0.2,0,0.4-0.1,0.6c-0.3,2.2-1.3,3-3.5,3.2C971.1,541.5,970.5,541.5,969.7,541.5z"/>
<path d="M947.3,541.4l1-5.4c1-0.1,2-0.1,3,0c1.1,0.1,1.5,0.7,1.5,1.8c0,2.2-1.2,3.4-3.4,3.5C948.8,541.5,948.2,541.4,947.3,541.4z"
	/>
</svg>
