<svg id="Calque_1" data-name="Calque 1" xmlns="http://www.w3.org/2000/svg" viewBox="0 0 1920 1080"><path d="M985.72,538.72v2a10.45,10.45,0,0,1-4,6.08,24.33,24.33,0,0,1-3.63,2.33,37.15,37.15,0,0,1-16.18,3.7,39.32,39.32,0,0,1-17.62-3.22c-4-1.83-7.46-4.26-8.6-8.89v-2a10.5,10.5,0,0,1,4-6.08,24.23,24.23,0,0,1,3.73-2.37,37,37,0,0,1,15.85-3.65,39.41,39.41,0,0,1,17.84,3.21C981.12,531.66,984.58,534.09,985.72,538.72Zm-16.39,4.87c1.13,0,2.16,0,3.19,0a5.72,5.72,0,0,0,5.54-4.29c.79-2.95-.37-5-3.28-5.3a47.71,47.71,0,0,0-6-.08c-.22,0-.56.42-.61.69-.56,2.67-1.07,5.35-1.59,8-.29,1.46-.57,2.92-.87,4.44h2.87Zm-22.41,0c1.11,0,2.18,0,3.24,0a5.71,5.71,0,0,0,5.44-4.13c.93-3.11-.36-5.24-3.48-5.51a48.57,48.57,0,0,0-5.66,0c-.25,0-.63.43-.7.72-.33,1.37-.57,2.75-.83,4.13L943.34,547c2.81.46,2.81.46,3.31-2.16C946.72,544.47,946.8,544.11,946.92,543.58Zm13.75-13.19a17.47,17.47,0,0,1-1.79,0c-.85-.1-1.16.25-1.28,1.07-.24,1.57-.6,3.12-.9,4.68-.47,2.45-.94,4.9-1.42,7.42h2.85q.55-2.71,1.09-5.41c.43-2.14.43-2.14,2.6-2.09,1.58,0,1.85.38,1.55,2-.34,1.81-.69,3.63-1,5.51h2.91c.4-2.13.82-4.23,1.19-6.33.33-1.89-.38-2.89-2.31-3.15-1.31-.18-2.64-.19-4-.28Z"/><path d="M969.74,541.45c.31-1.67.57-3.2.92-4.7a1.24,1.24,0,0,1,.85-.7,8.2,8.2,0,0,1,2,0,1.72,1.72,0,0,1,1.76,2.24c-.35,2.21-1.29,3.05-3.53,3.15C971.1,541.48,970.47,541.45,969.74,541.45Z"/><path d="M947.32,541.44l1-5.36a29,29,0,0,1,3,0c1.11.11,1.54.69,1.51,1.8,0,2.25-1.16,3.43-3.38,3.54C948.81,541.47,948.15,541.44,947.32,541.44Z"/></svg>