<?xml version="1.0" encoding="utf-8"?>
<!-- Generator: Adobe Illustrator 25.0.0, SVG Export Plug-In . SVG Version: 6.00 Build 0)  -->
<svg version="1.1" id="Calque_1" xmlns="http://www.w3.org/2000/svg" xmlns:xlink="http://www.w3.org/1999/xlink" x="0px" y="0px"
	 viewBox="0 0 1920 1080" style="enable-background:new 0 0 1920 1080;" xml:space="preserve">
<g>
	<path d="M960.7,516.3c7.1,0,14.2,0,21.3,0c1.8,0,2.2,0.3,2.2,2.1c0,12.2,0,24.4,0,36.5c0,1.7-0.3,2-1.9,2.5
		c-6.6,1.8-13.2,3.5-19.8,5.2c-1.1,0.3-2.4,0.3-3.5,0c-6.6-1.7-13.2-3.5-19.8-5.2c-1.6-0.4-2-0.9-2-2.6c0-12.2,0-24.4,0-36.5
		c0-1.7,0.4-2,2-2C946.4,516.3,953.6,516.3,960.7,516.3z M981,525.2c-13.6,0-27.1,0-40.6,0c0,8.6,0,17.1,0,25.6
		c6.4,1.7,12.8,3.5,19.2,5.2c0.8,0.2,1.8,0.1,2.6-0.1c2.9-0.7,5.8-1.6,8.8-2.4c3.3-0.9,6.7-1.8,10-2.7
		C981,542.3,981,533.8,981,525.2z M981,519.5c-13.6,0-27.1,0-40.6,0c0,1.2,0,2.4,0,3.5c13.5,0,27,0,40.6,0
		C981,521.8,981,520.7,981,519.5z M940.4,554.5c0.2,0.1,0.3,0.2,0.4,0.2c6.3,1.7,12.7,3.4,19,5.1c0.6,0.1,1.3,0.1,1.8-0.1
		c6-1.6,12.1-3.2,18.1-4.8c1.4-0.4,1.4-0.4,1.1-1.9c-5.5,1.5-11.1,3-16.6,4.6c-2.3,0.7-4.5,0.9-6.8,0.1c-1.2-0.4-2.4-0.7-3.6-1
		c-4.4-1.2-8.9-2.4-13.4-3.6C940.4,553.5,940.4,554,940.4,554.5z"/>
	<path d="M954.5,533.7c1.1,0,2.1,0,3.2,0c1.2,3.9,2.4,7.9,3.7,12.1c-1.1-0.1-2.2,0.1-2.7-0.4c-0.6-0.5-0.6-1.6-0.8-2.5
		c-1.2,0-2.3,0-3.5,0c-0.2,0.5-0.4,1.1-0.5,1.7c-0.1,1-0.6,1.3-1.6,1.2c-0.4,0-0.8,0-1.4,0C952.1,541.6,953.3,537.7,954.5,533.7z
		 M956.1,536c-0.1,0-0.1,0-0.2,0c-0.4,1.5-0.7,3.1-1.1,4.6c0.9,0,1.6,0,2.4,0C956.9,539.1,956.5,537.6,956.1,536z"/>
	<path d="M961.4,544.3c0.6-0.7,1-1.2,1.3-1.5c1.3,0.3,2.3,0.7,3.4,0.8c0.4,0,1.1-0.5,1.3-0.9c0.1-0.3-0.4-1-0.8-1.2
		c-0.8-0.5-1.7-0.8-2.5-1.1c-1.7-0.8-2.5-2.1-2.2-3.8c0.2-1.5,1.6-2.7,3.2-2.9c1.7-0.2,3.3,0.2,4.7,1.5c-0.4,0.5-0.8,1.1-1.1,1.5
		c-1-0.3-1.8-0.6-2.7-0.7c-0.5,0-0.9,0.5-1.4,0.8c0.3,0.4,0.5,1,0.9,1.3c0.7,0.4,1.5,0.6,2.2,1c1.9,0.8,2.6,1.9,2.4,3.8
		c-0.1,1.5-1.4,2.8-3,3.1C965,546.3,963.2,545.7,961.4,544.3z"/>
	<path d="M949.3,536.5c-1.2-0.3-2.1-0.6-3-0.6c-0.4,0-1,0.5-1.1,0.8c-0.1,0.3,0.4,0.9,0.7,1.2c0.8,0.5,1.8,0.8,2.6,1.2
		c1.6,0.7,2.3,1.8,2.2,3.4c-0.1,1.6-1,2.7-2.5,3.2c-2.3,0.8-4.3,0.2-6.3-1.3c0.5-0.6,0.9-1.2,1.3-1.6c1.2,0.3,2.2,0.8,3.3,0.9
		c0.4,0.1,1-0.6,1.5-0.9c-0.3-0.4-0.5-1-1-1.3c-0.8-0.5-1.7-0.8-2.5-1.2c-1.6-0.8-2.4-2.2-2.2-3.6c0.3-1.6,1.6-2.8,3.3-3
		c1.8-0.3,3.3,0.2,4.7,1.5C949.9,535.6,949.5,536.1,949.3,536.5z"/>
	<path d="M970.7,544.2c0.5-0.6,0.9-1.1,1.2-1.5c1.2,0.3,2.3,0.8,3.3,0.9c0.4,0,1-0.6,1.4-0.9c-0.3-0.4-0.5-1-1-1.3
		c-0.8-0.5-1.7-0.8-2.5-1.2c-1.6-0.8-2.4-2.1-2.1-3.6c0.2-1.5,1.5-2.7,3.2-3c1.8-0.3,3.4,0.1,4.8,1.5c-0.4,0.5-0.9,1.1-1.1,1.4
		c-1.1-0.2-2-0.6-2.9-0.6c-0.4,0-1,0.5-1.2,0.9c-0.1,0.2,0.4,0.9,0.8,1.1c0.9,0.5,1.8,0.8,2.7,1.2c1.3,0.6,2,1.5,2.1,3
		c0,1.4-0.6,2.5-1.8,3.2C975.6,546.5,972.4,546,970.7,544.2z"/>
</g>
</svg>
