<svg id="Calque_1" data-name="Calque 1" xmlns="http://www.w3.org/2000/svg" viewBox="0 0 1920 1080"><path d="M960.73,516.28h21.32c1.81,0,2.17.34,2.17,2.1v36.54c0,1.7-.26,2-1.9,2.47-6.6,1.75-13.19,3.55-19.8,5.23a7.4,7.4,0,0,1-3.47,0c-6.62-1.68-13.21-3.48-19.8-5.23-1.62-.43-2-.88-2-2.57V518.29c0-1.66.35-2,2-2Zm20.29,9H940.45v25.6c6.43,1.75,12.79,3.51,19.18,5.19a5.47,5.47,0,0,0,2.6-.11c2.94-.72,5.85-1.55,8.77-2.35l10-2.75Zm0-5.77H940.44V523H981Zm-40.58,35c.17.07.29.15.43.19,6.34,1.69,12.68,3.4,19,5.05a3.75,3.75,0,0,0,1.85-.06c6-1.57,12-3.18,18.07-4.79,1.43-.38,1.42-.38,1.09-1.89-5.55,1.52-11.12,3-16.64,4.57a10.76,10.76,0,0,1-6.82.08c-1.18-.42-2.41-.7-3.62-1L940.43,553Z"/><path d="M954.48,533.71h3.21l3.71,12c-1.07-.12-2.19.06-2.75-.41s-.56-1.61-.82-2.5h-3.54a8.81,8.81,0,0,0-.46,1.65c-.08,1-.64,1.29-1.55,1.17a12.75,12.75,0,0,0-1.41,0Zm1.65,2.34-.17,0-1.11,4.63h2.43Z"/><path d="M961.41,544.26l1.28-1.55a24.75,24.75,0,0,0,3.44.84,1.65,1.65,0,0,0,1.28-.9c.11-.26-.39-1-.79-1.22a21.74,21.74,0,0,0-2.5-1.14,3.38,3.38,0,0,1-2.21-3.8,3.69,3.69,0,0,1,3.23-2.9,5.26,5.26,0,0,1,4.66,1.49l-1.1,1.48a14.61,14.61,0,0,0-2.69-.66c-.45,0-.93.52-1.39.8.3.44.52,1,.94,1.29a13.88,13.88,0,0,0,2.23,1c1.86.78,2.57,1.9,2.4,3.77a3.75,3.75,0,0,1-3,3.13A6.51,6.51,0,0,1,961.41,544.26Z"/><path d="M949.26,536.51a19.37,19.37,0,0,0-3-.6,1.42,1.42,0,0,0-1.11.84c-.08.32.36.94.72,1.15.83.48,1.76.76,2.63,1.16a3.21,3.21,0,0,1,2.23,3.35,3.5,3.5,0,0,1-2.47,3.23c-2.31.83-4.32.18-6.28-1.35l1.27-1.63a20.55,20.55,0,0,0,3.32.89c.45.06,1-.55,1.46-.86-.31-.44-.53-1-.95-1.29a23.87,23.87,0,0,0-2.51-1.16,3.47,3.47,0,0,1-2.17-3.63,3.74,3.74,0,0,1,3.27-3,5.35,5.35,0,0,1,4.68,1.48Z"/><path d="M970.7,544.17l1.22-1.5a22.2,22.2,0,0,0,3.35.88c.43.05,1-.57,1.43-.89-.32-.44-.55-1-1-1.29a27.18,27.18,0,0,0-2.51-1.15,3.43,3.43,0,0,1-2.14-3.65,3.74,3.74,0,0,1,3.19-3,5.28,5.28,0,0,1,4.75,1.48l-1.13,1.44a15.78,15.78,0,0,0-2.89-.61,1.6,1.6,0,0,0-1.18.89c-.1.25.39.92.77,1.13a28.87,28.87,0,0,0,2.73,1.19,3.12,3.12,0,0,1,2.06,3,3.4,3.4,0,0,1-1.79,3.21A5.87,5.87,0,0,1,970.7,544.17Z"/></svg>