<?xml version="1.0" encoding="utf-8"?>
<!-- Generator: Adobe Illustrator 25.0.0, SVG Export Plug-In . SVG Version: 6.00 Build 0)  -->
<svg version="1.1" id="Calque_1" xmlns="http://www.w3.org/2000/svg" xmlns:xlink="http://www.w3.org/1999/xlink" x="0px" y="0px"
	 viewBox="0 0 1920 1080" style="enable-background:new 0 0 1920 1080;" xml:space="preserve">
<style type="text/css">
	.st0{fill:#99D4C2;}
	.st1{fill:#458FCC;}
	.st2{fill:#EA1D47;}
	.st3{fill:#F2F2F2;}
	.st4{font-family:'MyriadPro-Regular';}
	.st5{font-size:27px;}
</style>
<g>
	<g>
		<path class="st0" d="M996.29,585.72c-62.34-8.07-113.85,21-120.52,14.23c-6.41-6.51,47.16-27.3,43.58-55.81
			c-1.92-15.31-18.98-22.07-12.92-29.78c8.06-10.27,39.46,0.12,70.63-12.81c25.32-10.5,31.69-28.59,36.67-27.24
			c6.1,1.65-14.03,25.98-8.42,55.71c6.69,35.41,45.58,55.61,36.67,62.42C1036.43,596.66,1021.28,588.95,996.29,585.72z"/>
		<path class="st1" d="M1008.4,545.47c-0.24,24.22-4.62,27.85-6.79,29.3c-9.52,6.39-19.72,0.16-45.73,4.29
			c-23.8,3.78-31.55,11.7-38.3,8.34c-10.35-5.16,6.94-24.18-6.46-41.22c-9.28-11.79-26.28-13.72-24.89-17.63
			c1.78-5.01,28.41,1.7,60.76-5.48c32.26-7.16,42.75-22.05,53.65-17.87C1008.76,508.31,1008.64,520.7,1008.4,545.47z"/>
		<path class="st1" d="M966.71,507.35"/>
		<path class="st0" d="M990.62,552.85"/>
		<path class="st2" d="M952.68,584.83c-18.99-4.55-40.12-17.03-42.31-29.9c-1.91-11.23,12.45-11.92,20.67-29.61
			c8.43-18.14-1.24-29.08,8.23-32.21c12.72-4.21,39.63,12.38,56,22.48c15.77,9.73,28.44,17.54,26.73,23.91
			c-2.49,9.27-32.42,4.3-39.06,15.9c-5.8,10.13,12.82,21.24,5.74,28.39C982.42,590.09,962.21,587.11,952.68,584.83z"/>
	</g>
	<text transform="matrix(1 0 0 1 900.8906 540.1782)" class="st3 st4 st5">Porte folio</text>
</g>
</svg>
