<?xml version="1.0" encoding="utf-8"?>
<!-- Generator: Adobe Illustrator 25.0.0, SVG Export Plug-In . SVG Version: 6.00 Build 0)  -->
<svg version="1.1" id="Calque_1" xmlns="http://www.w3.org/2000/svg" xmlns:xlink="http://www.w3.org/1999/xlink" x="0px" y="0px"
	 viewBox="0 0 1920 1080" style="enable-background:new 0 0 1920 1080;" xml:space="preserve">
<style type="text/css">
	.st0{fill:#99D3C2;}
	.st1{fill:#458FCD;}
	.st2{fill:#E92248;}
	.st3{font-family:'ArialMT';}
	.st4{font-size:189.5902px;}
</style>
<g>
	<g>
		<path class="st0" d="M898.1,769.78c-338.45-48.3-618.17,125.76-654.37,85.2c-34.79-38.97,256.05-163.43,236.61-334.13
			c-10.46-91.66-103.04-132.12-70.19-178.33c43.74-61.48,214.23,0.74,383.47-76.67c137.46-62.89,172.07-171.2,199.08-163.12
			c33.11,9.91-76.16,155.57-45.68,333.54c36.3,211.98,247.48,332.94,199.07,373.7C1116.06,835.3,1033.8,789.16,898.1,769.78z"/>
		<path class="st1" d="M963.86,528.82c-1.29,145.04-25.07,166.73-36.86,175.44c-51.68,38.26-107.09,0.95-248.32,25.66
			c-129.23,22.65-171.27,70.08-207.95,49.93c-56.18-30.86,37.7-144.75-35.11-246.78c-50.35-70.57-142.68-82.13-135.13-105.58
			c9.69-30.02,154.28,10.22,329.92-32.8c175.12-42.87,232.11-131.97,291.3-106.98C965.86,306.37,965.19,380.52,963.86,528.82z"/>
		<path class="st1" d="M737.51,300.58"/>
		<path class="st0" d="M867.34,573.02"/>
		<path class="st2" d="M661.35,764.48C558.27,737.24,443.5,662.53,431.63,585.42c-10.36-67.23,67.59-71.35,112.21-177.26
			c45.78-108.59-6.74-174.1,44.69-192.85c69.06-25.21,215.19,74.15,304.08,134.61c85.63,58.25,154.41,105.02,145.15,143.14
			c-13.48,55.51-176,25.74-212.09,95.18c-31.53,60.64,69.62,127.13,31.14,169.96C822.8,796,713.08,778.14,661.35,764.48z"/>
	</g>
	<text transform="matrix(1 0 0 1 564.0786 518.6826)" class="st3 st4">Porte Folio</text>
</g>
</svg>
