<?xml version="1.0" encoding="utf-8"?>
<!-- Generator: Adobe Illustrator 27.0.1, SVG Export Plug-In . SVG Version: 6.00 Build 0)  -->
<svg version="1.1" id="Layer_1" xmlns="http://www.w3.org/2000/svg" xmlns:xlink="http://www.w3.org/1999/xlink" x="0px" y="0px"
	 viewBox="0 0 225 225" style="enable-background:new 0 0 225 225;" xml:space="preserve">
<style type="text/css">
	.st0{fill:#FFFFFF;}
</style>
<g>
	<path class="st0" d="M225,123.97c0,33.68,0,67.35,0,101.03c-75,0-150,0-225,0c0-33.68,0-67.35,0-101.03
		c0.29,1.27,0.74,2.52,0.86,3.8c1.82,19.18,8.61,36.48,19.71,52.14c13.89,19.61,32.04,33.63,54.85,41.44
		c5.26,1.8,8.72,0.38,8.99-4.26c0.41-6.92,0.11-13.87,0.11-21.25c-2.28,0.33-3.71,0.64-5.16,0.74c-15.92,1.12-29.4-1.7-34.86-17.99
		c-1.64-4.9-6.96-8.57-10.62-12.78c-1.43-1.65-2.94-3.23-4.41-4.84c0.23-0.46,0.45-0.92,0.68-1.39c2.68,0,5.5-0.55,8.01,0.11
		c6.8,1.78,11.31,6.54,15.04,12.35c7.7,12,17.24,12.49,29.17,8.83c1.06-0.32,2.17-1.51,2.63-2.57c1.89-4.35,3.55-8.8,5.36-13.41
		c-1.34-0.25-3.11-0.65-4.9-0.9c-40.45-5.68-58.94-49.8-34.86-83.05c0.78-1.07,0.98-3.04,0.63-4.37
		c-1.96-7.46-1.77-14.81,0.34-22.18c1.69-5.9,2.68-6.93,8.41-4.95c7.03,2.43,13.83,5.62,20.46,9.01c2.85,1.46,5.26,2.1,8.38,1.33
		c15.29-3.78,30.71-3.81,46-0.32c4.28,0.98,7.37,0.13,11.12-1.79c6.6-3.39,13.61-6.03,20.61-8.57c2.83-1.03,5.31-0.14,6.37,3.52
		c2.26,7.84,3.04,15.62,0.96,23.63c-0.36,1.39-0.46,3.51,0.33,4.42c9.84,11.44,11.18,24.99,9.56,39.09
		c-2.12,18.48-10.31,33.03-28.57,39.91c-6.75,2.54-13.93,3.93-21.27,5.94c6.16,6.84,6.74,15.25,6.7,23.85
		c-0.04,8.17-0.04,16.34,0,24.5c0.05,7.73,2.76,9.68,9.88,7.07c32.75-12.04,55.25-34.65,67.43-67.12
		C221.5,144.39,222.71,133.98,225,123.97z"/>
	<path d="M225,123.97c-2.29,10-3.5,20.41-7.07,29.93c-12.18,32.48-34.68,55.09-67.43,67.12c-7.12,2.61-9.83,0.66-9.88-7.07
		c-0.05-8.17-0.04-16.34,0-24.5c0.04-8.6-0.54-17.02-6.7-23.85c7.35-2.01,14.53-3.4,21.27-5.94c18.26-6.87,26.45-21.43,28.57-39.91
		c1.61-14.1,0.28-27.64-9.56-39.09c-0.79-0.91-0.69-3.03-0.33-4.42c2.08-8,1.29-15.79-0.96-23.63c-1.05-3.66-3.53-4.55-6.37-3.52
		c-6.99,2.54-14.01,5.18-20.61,8.57c-3.75,1.93-6.83,2.77-11.12,1.79c-15.3-3.49-30.71-3.46-46,0.32c-3.12,0.77-5.53,0.13-8.38-1.33
		c-6.63-3.39-13.44-6.58-20.46-9.01c-5.72-1.98-6.71-0.95-8.41,4.95c-2.11,7.36-2.3,14.72-0.34,22.18c0.35,1.33,0.15,3.3-0.63,4.37
		c-24.08,33.25-5.6,77.37,34.86,83.05c1.79,0.25,3.56,0.65,4.9,0.9c-1.82,4.6-3.47,9.06-5.36,13.41c-0.46,1.06-1.57,2.24-2.63,2.57
		c-11.94,3.66-21.48,3.18-29.17-8.83c-3.73-5.82-8.24-10.57-15.04-12.35c-2.51-0.66-5.33-0.11-8.01-0.11
		c-0.23,0.46-0.45,0.92-0.68,1.39c1.47,1.61,2.98,3.19,4.41,4.84c3.66,4.21,8.98,7.88,10.62,12.78
		c5.46,16.3,18.94,19.11,34.86,17.99c1.44-0.1,2.88-0.41,5.16-0.74c0,7.38,0.3,14.34-0.11,21.25c-0.27,4.64-3.73,6.06-8.99,4.26
		c-22.81-7.81-40.96-21.83-54.85-41.44C9.48,164.26,2.68,146.96,0.86,127.77c-0.12-1.28-0.57-2.53-0.86-3.8c0-6,0-12,0-18
		c0.38-2.25,0.8-4.5,1.12-6.76C9.86,38.6,65.12-4.16,125.91,3.84c47.65,6.27,78.85,33.52,94.11,78.9
		c2.51,7.46,3.36,15.48,4.97,23.24C225,111.97,225,117.97,225,123.97z"/>
	<path class="st0" d="M225,105.97c-1.62-7.76-2.46-15.78-4.97-23.24c-15.27-45.38-46.46-72.62-94.11-78.9
		C65.12-4.16,9.86,38.6,1.12,99.21c-0.33,2.26-0.74,4.5-1.12,6.76C0,70.67,0,35.36,0,0c75,0,150,0,225,0
		C225,35.36,225,70.67,225,105.97z"/>
</g>
</svg>
