<?xml version="1.0" encoding="utf-8"?>
<!-- Generator: Adobe Illustrator 27.0.1, SVG Export Plug-In . SVG Version: 6.00 Build 0)  -->
<svg version="1.1" id="Layer_1" xmlns="http://www.w3.org/2000/svg" xmlns:xlink="http://www.w3.org/1999/xlink" x="0px" y="0px"
	 viewBox="0 0 225 225" style="enable-background:new 0 0 225 225;" xml:space="preserve">
<style type="text/css">
	.st0{fill:#FFFFFF;}
</style>
<g>
	<path class="st0" d="M225,225c-75.03,0-150.03,0-225,0C0,149.97,0,74.97,0,0c75.03,0,150.03,0,225,0C225,75.03,225,150.03,225,225z
		 M203.26,112.6c0.02-49.9-40.25-90.39-89.98-90.49c-50.23-0.1-91.32,40.88-90.99,90.73c0.34,50.12,40.45,90.28,90.22,90.31
		C163.22,203.19,203.25,163.25,203.26,112.6z"/>
	<path d="M203.26,112.6c-0.02,50.65-40.04,90.59-90.75,90.55c-49.77-0.03-89.88-40.19-90.22-90.31
		c-0.33-49.86,40.75-90.83,90.99-90.73C163.01,22.2,203.28,62.69,203.26,112.6z M101.62,156.28c6.49,0,12.55,0,19.06,0
		c0-5.03-0.02-9.66,0.01-14.3c0.05-7.67-0.18-15.35,0.29-22.99c0.42-6.7,5.13-10.65,11.59-10.66c6.01-0.01,9.88,3.65,10.48,10.41
		c0.37,4.14,0.27,8.32,0.29,12.49c0.04,8.28,0.01,16.56,0.01,25.13c6.88,0,13.11,0,19.55,0c0-15.63,0.65-30.98-0.19-46.24
		c-0.75-13.53-13.45-22.44-26.68-19.26c-5.35,1.29-10.19,4.66-15.13,7.02c-0.17-1.43-0.42-3.52-0.66-5.55c-6.38,0-12.33,0-18.62,0
		C101.62,113.66,101.62,134.74,101.62,156.28z M69.29,92.31c0,21.53,0,42.71,0,64.04c6.53,0,12.76,0,19.18,0
		c0-21.49,0-42.65,0-64.04C82.01,92.31,75.91,92.31,69.29,92.31z M67,72.12c0.05,6.4,5.41,11.79,11.7,11.79
		c6.29,0,11.69-5.4,11.78-11.78c0.09-6.5-5.61-12.23-12.01-12.06C72.16,60.23,66.94,65.72,67,72.12z"/>
	<path class="st0" d="M101.62,156.28c0-21.53,0-42.62,0-63.95c6.28,0,12.24,0,18.62,0c0.24,2.04,0.49,4.12,0.66,5.55
		c4.93-2.36,9.78-5.74,15.13-7.02c13.23-3.18,25.93,5.73,26.68,19.26c0.85,15.26,0.19,30.61,0.19,46.24c-6.44,0-12.67,0-19.55,0
		c0-8.57,0.03-16.85-0.01-25.13c-0.02-4.16,0.08-8.35-0.29-12.49c-0.6-6.75-4.47-10.42-10.48-10.41
		c-6.46,0.01-11.17,3.96-11.59,10.66c-0.48,7.64-0.25,15.32-0.29,22.99c-0.03,4.64-0.01,9.27-0.01,14.3
		C114.17,156.28,108.11,156.28,101.62,156.28z"/>
	<path class="st0" d="M69.29,92.31c6.62,0,12.73,0,19.18,0c0,21.38,0,42.55,0,64.04c-6.42,0-12.65,0-19.18,0
		C69.29,135.02,69.29,113.84,69.29,92.31z"/>
	<path class="st0" d="M67,72.12c-0.05-6.4,5.16-11.88,11.46-12.05c6.4-0.17,12.1,5.56,12.01,12.06
		c-0.09,6.38-5.49,11.78-11.78,11.78C72.4,83.91,67.05,78.51,67,72.12z"/>
</g>
</svg>
