<?xml version="1.0" encoding="utf-8"?>
<!-- Generator: Adobe Illustrator 25.0.0, SVG Export Plug-In . SVG Version: 6.00 Build 0)  -->
<svg version="1.1" id="Calque_1" xmlns="http://www.w3.org/2000/svg" xmlns:xlink="http://www.w3.org/1999/xlink" x="0px" y="0px"
	 viewBox="0 0 209 207.9" style="enable-background:new 0 0 209 207.9;" xml:space="preserve">
<g>
	<path d="M103.5,207.9C47.6,208,0.3,160.9,0,105.3C-0.3,47.6,45,1.6,100.7,0c61.6-1.7,107.9,45.7,108.3,103
		C209.4,161.8,162.8,207.8,103.5,207.9z M104.5,193.8c46,2.8,91.1-38.1,91.1-89.6c0-50-40.8-90.7-90.6-90.7
		c-50.2,0-90.6,40.3-91.2,89.5C13,155.7,59.3,196.5,104.5,193.8z"/>
	<path d="M52.6,153.9c8.6-32.1,17.1-63.3,25.6-94.8c7.8,0,15.3-0.2,22.8,0.2c1.3,0.1,3.2,2.5,3.7,4.1c6.3,22.2,12.5,44.5,18.7,66.8
		c2.1,7.5,4.1,15,6.4,23.7c-6.9,0-13.1,0.1-19.3-0.2c-0.8,0-1.9-2.1-2.2-3.3c-1.6-5.6-3.1-11.2-4.5-16.9c-0.6-2.7-1.8-3.9-4.8-3.7
		c-5.7,0.2-11.3,0.2-17,0c-3-0.1-4.1,1.1-4.7,3.8c-1.1,5.4-2.7,10.6-3.8,16c-0.6,2.9-1.8,4.3-4.9,4.2
		C63.4,153.8,58.5,153.9,52.6,153.9z M90.6,78.8c-0.4,0-0.8,0-1.1,0c-2.6,11.4-5.3,22.7-7.9,34.1c6.1,0,11.6,0,17.7,0
		C96.3,101.1,93.5,89.9,90.6,78.8z"/>
	<path d="M158,153.9c-6.2,0-12.1,0-18.2,0c0-22.8,0-45.4,0-68.5c6.2,0,12,0,18.2,0C158,107.9,158,130.6,158,153.9z"/>
	<path d="M159.1,65.8c0.1,6.7-3.8,11-10,11.1C143.6,77,139,72.2,139,66.3c0-5.7,4.3-10.4,9.7-10.5C154.9,55.6,159,59.6,159.1,65.8z"
		/>
</g>
</svg>
