<?xml version="1.0" encoding="utf-8"?>
<!-- Generator: Adobe Illustrator 25.0.0, SVG Export Plug-In . SVG Version: 6.00 Build 0)  -->
<svg version="1.1" id="Calque_1" xmlns="http://www.w3.org/2000/svg" xmlns:xlink="http://www.w3.org/1999/xlink" x="0px" y="0px"
	 viewBox="0 0 225 225" style="enable-background:new 0 0 225 225;" xml:space="preserve">
<style type="text/css">
	.st0{fill:#ED1846;}
</style>
<g>
	<path class="st0" d="M186.3,114c0,20.3,0,40.7,0,61c0,8.8-2.5,11.3-11.3,11.3c-41.2,0-82.3,0-123.5,0c-8,0-10.8-2.8-10.8-10.8
		c0-41.3,0-82.7,0-124c0-8,2.8-10.8,10.8-10.8c41.3,0,82.7,0,124,0c8.1,0,10.8,2.8,10.8,10.8C186.4,72.3,186.3,93.2,186.3,114z
		 M89.2,78c-7.5,24.7-15,49.1-22.7,74.2c5.1,0,9.6-0.1,14,0.1c2.7,0.1,3.8-0.9,4.4-3.5c1.2-5.1,2.8-10.2,4.4-15.6
		c6.3,0,12.5-0.1,18.6,0.1c1.1,0,2.7,1.5,3.2,2.7c1.6,4.2,2.6,8.6,4.1,12.8c0.4,1.2,1.6,3.1,2.4,3.1c5.3,0.3,10.7,0.1,16.7,0.1
		c-7.6-24.6-15-48.2-22.4-71.8c-0.3-1-2-2.2-3.1-2.2C102.4,77.9,95.9,78,89.2,78z M143.3,151.8c5.7,0,10.9,0,16.3,0
		c0-17.9,0-35.5,0-53.3c-5.5,0-10.8,0-16.3,0C143.3,116.3,143.3,133.9,143.3,151.8z M151.8,74.9c-5.3-0.1-8.7,2.9-8.9,7.9
		c-0.2,5.2,3.2,8.9,8.4,9c4.9,0.1,8.9-3.4,9.1-8C160.6,78.7,157,75,151.8,74.9z"/>
	<path class="st0" d="M99.6,91.1c2.9,10.1,5.5,19.4,8.2,29.1c-5.4,0-10.3,0-15.8,0C94.5,110.7,97,101.3,99.6,91.1z"/>
</g>
</svg>
