<?xml version="1.0" encoding="utf-8"?>
<!-- Generator: Adobe Illustrator 25.0.0, SVG Export Plug-In . SVG Version: 6.00 Build 0)  -->
<svg version="1.1" id="Calque_1" xmlns="http://www.w3.org/2000/svg" xmlns:xlink="http://www.w3.org/1999/xlink" x="0px" y="0px"
	 viewBox="0 0 189.6 206.9" style="enable-background:new 0 0 189.6 206.9;" xml:space="preserve">
<style type="text/css">
	.st0{stroke:#000000;stroke-width:0.5;}
</style>
<g>
	<path class="st0" d="M29.8,103.3c0-9.4,0-18.8,0-28.2c0-5.4,2.3-9.4,7-12.1c16.9-9.5,33.7-18.9,50.5-28.4c5.1-2.9,9.9-2.8,14.9,0
		c16.7,9.5,33.5,18.9,50.2,28.3c5,2.8,7.3,7,7.2,12.7c-0.1,18.7-0.1,37.3,0,56c0,5.7-2.3,9.8-7.3,12.6c-16.4,9.2-32.8,18.2-49,27.6
		c-6,3.5-11.4,3.4-17.4-0.1c-16.1-9.3-32.4-18.4-48.7-27.4c-5.1-2.8-7.6-7-7.5-12.8C29.9,122.1,29.8,112.7,29.8,103.3z M153.6,103.9
		c0-9.4-0.1-18.8,0.1-28.2c0.1-3.7-1.4-6-4.5-7.7c-16.7-9.3-33.3-18.7-49.9-28.1c-3-1.7-5.7-1.7-8.7,0C73.8,49.3,57.2,58.7,40.5,68
		c-3.1,1.7-4.6,4.1-4.5,7.7c0.1,18.6,0.1,37.1,0,55.7c0,3.7,1.4,6,4.5,7.7c16.7,9.3,33.3,18.7,49.9,28.1c3,1.7,5.7,1.7,8.7,0
		c16.7-9.5,33.5-18.9,50.2-28.2c3-1.7,4.3-4.1,4.2-7.6C153.5,122.2,153.6,113.1,153.6,103.9z"/>
	<path class="st0" d="M128.6,82.1c-6.2,3.6-12.2,7.1-18.3,10.6c-3.6-3.9-7.6-6.8-12.9-7.6c-10.1-1.5-19.2,5.3-20.9,15.7
		c-1.6,9.7,5.2,19.2,14.9,20.9c6.6,1.2,12.2-0.8,16.8-5.5c1.4-1.5,2.4-1.9,4.3-0.7c5.2,3.2,10.6,6.2,15.9,9.3
		c-6.8,13.5-25.9,21.6-42,17.9c-18-4-31.2-19.6-31.8-37.5c-0.7-18.6,11.2-35.2,29-40.4C100.6,60,119.7,67.2,128.6,82.1z M111,121.8
		c-13,10.7-27.2,6.4-34.5-1.7c-8.3-9.1-8.4-23.4-0.4-32.7c7-8.1,21.3-13.2,35-2.2c2.7-1.5,5.4-3.1,8.2-4.7
		C107.6,66.4,85,65.8,71.2,79c-14.1,13.5-13.8,36.6,0.5,49.6c14,12.7,36.5,11.8,47.4-2.1C116.4,125,113.8,123.5,111,121.8z"/>
	<path class="st0" d="M125.7,94.1c0.1-2.1,0.2-3.9,0.3-5.9c1.9,0,3.7,0,5.6,0c0.1,1.9,0.2,3.7,0.3,5.8c2.1,0,4.1,0,6.2,0
		c0.1-1.9,0.2-3.7,0.3-5.7c1.8,0,3.6,0,5.6,0c0.1,1.9,0.2,3.6,0.3,5.8c1.9,0.1,3.8,0.2,5.8,0.3c0,1.9,0,3.7,0,5.9
		c-1.8,0.1-3.7,0.2-5.8,0.3c0,2,0,3.9,0,5.9c1.9,0.1,3.7,0.2,5.7,0.3c0,2,0,3.8,0,5.9c-1.9,0.1-3.6,0.2-5.8,0.3
		c-0.1,1.9-0.2,3.8-0.3,5.9c-1.9,0-3.7,0-5.6,0c-0.1-1.9-0.2-3.7-0.3-5.8c-2.1,0-4.1,0-6.2,0c-0.1,1.9-0.2,3.7-0.3,5.7
		c-1.8,0-3.6,0-5.6,0c-0.1-1.9-0.2-3.6-0.3-5.8c-1.9-0.1-3.8-0.2-5.8-0.3c0-1.9,0-3.7,0-5.9c1.8-0.1,3.7-0.2,5.8-0.3
		c0-2,0-3.9,0-5.9c-1.9-0.1-3.7-0.2-5.7-0.3c0-2,0-3.8,0-5.9C121.8,94.3,123.6,94.2,125.7,94.1z M132,100.5c0,2.2,0,4.1,0,5.9
		c2.2,0,4.1,0,6,0c0-2.1,0-3.9,0-5.9C135.9,100.5,134.1,100.5,132,100.5z"/>
</g>
</svg>
