<?xml version="1.0" encoding="utf-8"?>
<!-- Generator: Adobe Illustrator 27.0.1, SVG Export Plug-In . SVG Version: 6.00 Build 0)  -->
<svg version="1.1" id="Layer_1" xmlns="http://www.w3.org/2000/svg" xmlns:xlink="http://www.w3.org/1999/xlink" x="0px" y="0px"
	 viewBox="0 0 500 500" style="enable-background:new 0 0 500 500;" xml:space="preserve">
<style type="text/css">
	.st0{fill:#FFFFFF;}
</style>
<g>
	<path class="st0" d="M500,500c-166.7,0-333.37,0-500,0C0,333.3,0,166.63,0,0c166.7,0,333.37,0,500,0C500,166.7,500,333.37,500,500z
		 M460.03,250.11c0-31-0.02-62.01,0.01-93.01c0.01-16.63-7.1-29.25-21.54-37.4c-55.69-31.4-111.43-62.69-167.2-93.95
		c-14.42-8.08-28.91-7.72-43.29,0.36c-55.15,31-110.3,62-165.47,92.96c-15.18,8.52-22.64,21.32-22.61,38.81
		c0.11,61.34,0.12,122.68-0.01,184.01c-0.04,17.69,7.49,30.55,22.86,39.17c54.9,30.77,109.77,61.57,164.59,92.49
		c14.93,8.42,29.71,8.73,44.63,0.35c55.32-31.04,110.64-62.08,165.91-93.19c14.77-8.31,22.17-21.03,22.13-38.1
		C459.98,311.78,460.03,280.94,460.03,250.11z"/>
	<path class="st0" d="M460.03,250.11c0,30.84-0.05,61.67,0.02,92.51c0.04,17.07-7.36,29.79-22.13,38.1
		c-55.27,31.12-110.59,62.15-165.91,93.19c-14.92,8.37-29.7,8.07-44.63-0.35c-54.81-30.92-109.69-61.72-164.59-92.49
		c-15.38-8.62-22.9-21.48-22.86-39.17c0.12-61.34,0.11-122.68,0.01-184.01c-0.03-17.49,7.43-30.29,22.61-38.81
		C117.71,88.11,172.85,57.11,228,26.11c14.38-8.08,28.87-8.44,43.29-0.36c55.77,31.26,111.51,62.55,167.2,93.95
		c14.44,8.14,21.56,20.76,21.54,37.4C460.01,188.1,460.03,219.1,460.03,250.11z M301.91,297.42c-31.89,32.5-77.45,27.05-102.18,1.24
		c-25.34-26.45-26.45-67.59-2.22-94.87c12.39-13.95,27.97-22,46.52-23.52c22.61-1.85,41.76,6.12,57.72,22.42
		c14.56-8.44,28.92-16.76,43.29-25.09c-24.76-35.26-76.62-58.19-129.32-42.64c-51.87,15.3-86.83,63.74-85.68,119.12
		c1.1,52.7,39.33,99.73,91.63,112.54c51.82,12.69,100.95-11.6,123.28-44.27C330.56,314.01,316.19,305.69,301.91,297.42z
		 M390.05,299.66c6.94,0,13.33,0,20.08,0c0-6.62,0-12.89,0-19.7c6.75,0,13.15,0,19.54,0c0-6.94,0-13.33,0-20.08
		c-6.63,0-12.91,0-19.33,0c0-6.76,0-13.15,0-20.08c6.7,0,13.1,0,19.43,0c0-6.82,0-13.09,0-19.9c-6.65,0-13.04,0-19.97,0
		c0-6.94,0-13.34,0-19.63c-6.82,0-13.09,0-19.9,0c0,6.66,0,13.05,0,19.33c-6.95,0-13.33,0-20.08,0c0-6.67,0-12.94,0-19.25
		c-6.77,0-13.15,0-19.9,0c0,6.62,0,12.89,0,19.7c-6.75,0-13.15,0-19.54,0c0,6.94,0,13.33,0,20.08c6.63,0,12.91,0,19.33,0
		c0,6.76,0,13.15,0,20.08c-6.7,0-13.1,0-19.43,0c0,6.82,0,13.09,0,19.9c6.65,0,13.04,0,19.97,0c0,6.94,0,13.34,0,19.63
		c6.82,0,13.09,0,19.9,0c0-6.66,0-13.05,0-19.33c6.95,0,13.33,0,19.9,0C390.05,286.96,390.05,293.11,390.05,299.66z"/>
	<path class="st0" d="M301.91,297.42c14.28,8.27,28.65,16.59,43.04,24.93c-22.33,32.67-71.45,56.96-123.28,44.27
		c-52.3-12.8-90.53-59.84-91.63-112.54c-1.16-55.38,33.81-103.82,85.68-119.12c52.7-15.55,104.56,7.38,129.32,42.64
		c-14.38,8.33-28.73,16.65-43.29,25.09c-15.95-16.29-35.11-24.27-57.72-22.42c-18.55,1.52-34.13,9.57-46.52,23.52
		c-24.23,27.28-23.12,68.42,2.22,94.87C224.45,324.47,270.02,329.92,301.91,297.42z"/>
	<path class="st0" d="M390.05,299.66c0-6.55,0-12.7,0-19.25c-6.57,0-12.96,0-19.9,0c0,6.27,0,12.67,0,19.33c-6.81,0-13.08,0-19.9,0
		c0-6.29,0-12.69,0-19.63c-6.93,0-13.32,0-19.97,0c0-6.81,0-13.08,0-19.9c6.33,0,12.73,0,19.43,0c0-6.93,0-13.32,0-20.08
		c-6.42,0-12.69,0-19.33,0c0-6.75,0-13.14,0-20.08c6.39,0,12.78,0,19.54,0c0-6.81,0-13.08,0-19.7c6.75,0,13.14,0,19.9,0
		c0,6.31,0,12.58,0,19.25c6.74,0,13.13,0,20.08,0c0-6.27,0-12.67,0-19.33c6.81,0,13.08,0,19.9,0c0,6.29,0,12.69,0,19.63
		c6.93,0,13.32,0,19.97,0c0,6.81,0,13.08,0,19.9c-6.33,0-12.73,0-19.43,0c0,6.93,0,13.32,0,20.08c6.42,0,12.69,0,19.33,0
		c0,6.75,0,13.14,0,20.08c-6.39,0-12.78,0-19.54,0c0,6.81,0,13.08,0,19.7C403.37,299.66,396.99,299.66,390.05,299.66z
		 M370.25,259.66c6.74,0,13.12,0,19.38,0c0-6.72,0-13.1,0-19.41c-6.65,0-12.9,0-19.38,0C370.25,246.76,370.25,253.01,370.25,259.66z
		"/>
	<path class="st0" d="M370.25,259.66c0-6.64,0-12.9,0-19.41c6.48,0,12.74,0,19.38,0c0,6.31,0,12.68,0,19.41
		C383.37,259.66,376.99,259.66,370.25,259.66z"/>
</g>
</svg>
