<?xml version="1.0" encoding="utf-8"?>
<!-- Generator: Adobe Illustrator 27.0.1, SVG Export Plug-In . SVG Version: 6.00 Build 0)  -->
<svg version="1.1" id="Calque_1" xmlns="http://www.w3.org/2000/svg" xmlns:xlink="http://www.w3.org/1999/xlink" x="0px" y="0px"
	 viewBox="0 0 1920 1080" style="enable-background:new 0 0 1920 1080;" xml:space="preserve">
<style type="text/css">
	.st0{fill:#FFFFFF;}
</style>
<g>
	<path class="st0" d="M1121.4,541.4c0,22.8-0.2,45.7,0,68.5c0,13.7-5.6,23.7-17.6,30.5c-41,23-82.1,45.9-122.9,69.2
		c-13.4,7.6-25.6,7.6-38.9,0c-40.8-23.4-81.9-46.2-122.9-69.2c-12-6.8-17.6-16.8-17.6-30.5c0.2-46.2,0.2-92.6,0-138.8
		c0-13.7,5.6-23.7,17.6-30.5c41.3-23,82.6-46.2,123.7-69.6c12.7-7.3,24.7-7.3,37.4,0c41.1,23.4,82.4,46.4,123.7,69.6
		c12,6.8,17.6,16.8,17.6,30.5C1121.2,494.5,1121.4,518,1121.4,541.4z M1001.2,576.7c-29.1,26.7-60.6,18.4-77.8,1
		c-20.1-20.3-20.3-52-1-73.4c20.3-22.5,48.9-22.7,79,0c10.7-6.3,21.5-12.5,32.3-18.8c-21.7-30.8-64.5-44-100.9-31.8
		c-37.7,12.5-64.1,49.4-63.1,88c1,40.8,28.1,76,66.7,87c36,10.3,78.5-4.1,97.1-33C1022.9,589.3,1012.4,583.2,1001.2,576.7z
		 M1067.4,563.7c0.2,5.4,0.5,9.8,0.7,14.4c5.4,0,10,0,15.2,0c0.3-4.9,0.7-9.6,1-15.2c5.1,0,9.6,0,14.2,0c0-5.4,0-9.8,0-14.6
		c-5.1-0.3-9.8-0.5-14.2-0.7c0-5.2,0-9.6,0-14.6c5.1-0.2,9.6-0.3,14.2-0.7c0-5.2,0-9.6,0-14.6c-5.1-0.3-9.6-0.5-14.4-0.8
		c-0.2-5.1-0.5-9.5-0.7-14.2c-5.4,0-10.2,0-15.2,0c-0.3,5.1-0.5,9.5-0.7,14c-4.7,0-9.1,0-13.7,0c-0.2-5.1-0.5-9.8-0.7-14.2
		c-5.6,0-10.3,0-15.2,0c-0.2,4.9-0.5,9.3-0.7,14.2c-4.9,0.3-9.5,0.7-14.2,1c0,5.2,0,9.8,0,14.6c5.1,0.2,9.5,0.3,13.9,0.7
		c0,5.2,0,9.8,0,14.6c-5.1,0.2-9.5,0.5-14,0.7c0,5.2,0,9.8,0,14.6c5.1,0.2,9.5,0.5,14.2,0.7c0.2,5.1,0.5,9.6,0.7,14.4
		c5.4,0,10.2,0,15.2,0c0.3-5.1,0.7-9.6,0.8-14.4C1058.6,563.7,1062.7,563.7,1067.4,563.7z"/>
	<path class="st0" d="M1067.4,533.6c0,4.7,0,9.1,0,14c-4.6,0-9,0-13.7,0c0-4.7,0-9,0-14C1057.9,533.6,1062.2,533.6,1067.4,533.6z"/>
</g>
</svg>
