<?xml version="1.0" encoding="utf-8"?>
<!-- Generator: Adobe Illustrator 25.0.0, SVG Export Plug-In . SVG Version: 6.00 Build 0)  -->
<svg version="1.1" id="Calque_1" xmlns="http://www.w3.org/2000/svg" xmlns:xlink="http://www.w3.org/1999/xlink" x="0px" y="0px"
	 viewBox="0 0 615 420.8" style="enable-background:new 0 0 615 420.8;" xml:space="preserve">
<style type="text/css">
	.st0{fill:#FFFFFF;}
	.st1{fill:#777777;}
</style>
<g>
	<path class="st0" d="M615,420.8c-205,0-410,0-615,0C0,280.5,0,140.3,0,0c205,0,410,0,615,0C615,140.2,615,280.5,615,420.8z
		 M322,149.1c0-0.8,0.1-1.1,0-1.3c-11-36.8-33.5-62.9-70.7-74.8c-22.6-7.3-45.8-7.7-68.9-3.2c-40.1,7.8-69.7,30-88.2,66.5
		c-10.1,20-14.1,41.5-15,63.7c-1.4,34.8,4.2,68.2,21.6,99c12.2,21.6,28.6,38.7,52.2,48c27.9,10.9,56.6,13.2,85.8,7.4
		c26.1-5.1,48-18,64.5-39.3c11.8-15.3,18.9-32.7,24.1-51.6c-12.4-3.2-24.5-6.2-36.5-9.3c-0.4,0.6-0.7,0.7-0.7,1
		c-0.7,2.3-1.3,4.6-2,6.8c-4.2,14.4-10.1,27.9-20.3,39.3c-14.1,15.7-32.2,22.6-52.8,23.9c-26,1.6-49.4-5-68.2-23.8
		c-14.2-14.1-22-31.7-25.5-51.2c-5-28-5.7-55.9,1.7-83.6c3.7-13.9,9.7-26.7,18.8-38c10.9-13.5,24.7-22.3,41.6-26.3
		c16.4-3.9,32.9-4.8,49.3-0.7c23,5.6,37.9,20.7,47.7,41.6c2.2,4.6,3.9,9.4,5.9,14.4C298.2,154.7,310,151.9,322,149.1z M354.2,156.8
		c0,11.4,0,22.5,0,34c10.2-2.7,20.1-5.3,30.4-8c0,2.3,0,4,0,5.6c0,24.1-0.1,48.2,0.1,72.4c0,4.1-1.2,5.5-5.1,6.4
		c-8.6,2-17,4.5-25.5,6.8c0,11.5,0,22.6,0,34.2c10.2-2.7,20.1-5.3,30.6-8.1c0,20.6,0,40.7,0,60.7c4.8,0,9.1,0,13.5,0
		c0.1-1.3,0.1-2.3,0.1-3.2c0-19.1,0.1-38.2,0-57.4c0-2.9,0.8-4.1,3.7-4.8c16.7-4.3,33.3-8.9,49.9-13.3c2.4-0.7,4.9-1.2,7.8-2
		c0,19.2,0,37.8,0,56.4c4.6,0,8.9,0,13.6,0c0-1.6,0-3,0-4.3c0-17.4,0.1-34.7-0.1-52.1c0-2.8,0.8-4,3.5-4.6c5.7-1.3,11.4-2.9,17-4.5
		c3.3-0.9,7.9-1.1,9.6-3.3c1.7-2.3,0.7-6.7,0.7-10.2c0.1-7.6,0-15.2,0-23.3c-10.4,2.8-20.4,5.4-30.3,8c-0.2-0.8-0.4-1.2-0.4-1.6
		c0-26.2,0-52.5-0.1-78.7c0-2.6,1.3-3.1,3.2-3.6c8.1-2.1,16.1-4.5,24.2-6.5c2.6-0.6,3.4-1.6,3.4-4.3c-0.2-7-0.1-14-0.1-21
		c0-3.1,0-6.2,0-9.7c-10.4,2.8-20.3,5.4-30.8,8.1c0-20.8,0-40.7,0-60.8c-4.7,0-9,0-13.6,0c0,21.6,0,42.9,0,64.4
		c-20.4,5.5-40.6,10.9-61.3,16.5c0-19.3,0-37.8,0-56.6c-4.7,0-9,0-13.7,0c0,1.6,0,2.9,0,4.2c0,17.2-0.1,34.5,0,51.7
		c0,3-0.7,4.4-3.8,5.1C372,151.8,363.1,154.4,354.2,156.8z"/>
	<path class="st1" d="M322,149.1c-11.9,2.8-23.8,5.6-35.7,8.4c-2-5-3.8-9.8-5.9-14.4c-9.8-20.8-24.7-35.9-47.7-41.6
		c-16.5-4-32.9-3.2-49.3,0.7c-16.9,4.1-30.7,12.8-41.6,26.3c-9.1,11.3-15.1,24.1-18.8,38c-7.4,27.7-6.7,55.6-1.7,83.6
		c3.5,19.5,11.3,37.1,25.5,51.2c18.8,18.8,42.1,25.4,68.2,23.8c20.6-1.3,38.7-8.2,52.8-23.9c10.2-11.3,16.1-24.9,20.3-39.3
		c0.7-2.3,1.3-4.6,2-6.8c0.1-0.2,0.3-0.4,0.7-1c12,3,24.1,6.1,36.5,9.3c-5.2,18.9-12.3,36.3-24.1,51.6
		c-16.5,21.3-38.4,34.2-64.5,39.3c-29.2,5.7-57.9,3.5-85.8-7.4c-23.6-9.2-40-26.3-52.2-48c-17.4-30.8-23-64.1-21.6-99
		c0.9-22.2,4.9-43.8,15-63.7c18.5-36.5,48.1-58.7,88.2-66.5c23.1-4.5,46.3-4.1,68.9,3.2c37.2,11.9,59.7,38,70.7,74.8
		C322,148,322,148.3,322,149.1z"/>
	<path class="st1" d="M354.2,156.8c8.9-2.4,17.7-5,26.7-7.2c3.1-0.8,3.8-2.1,3.8-5.1c-0.1-17.2,0-34.5,0-51.7c0-1.3,0-2.7,0-4.2
		c4.7,0,9,0,13.7,0c0,18.8,0,37.3,0,56.6c20.7-5.6,40.9-11,61.3-16.5c0-21.5,0-42.8,0-64.4c4.6,0,8.9,0,13.6,0c0,20.1,0,40,0,60.8
		c10.5-2.8,20.4-5.4,30.8-8.1c0,3.5,0,6.6,0,9.7c0,7-0.1,14,0.1,21c0.1,2.6-0.8,3.7-3.4,4.3c-8.1,2-16.2,4.3-24.2,6.5
		c-2,0.5-3.2,1.1-3.2,3.6c0.1,26.2,0.1,52.5,0.1,78.7c0,0.4,0.2,0.7,0.4,1.6c10-2.6,19.9-5.3,30.3-8c0,8.1,0,15.7,0,23.3
		c0,3.5,1,7.9-0.7,10.2c-1.7,2.2-6.3,2.4-9.6,3.3c-5.7,1.6-11.3,3.2-17,4.5c-2.7,0.6-3.5,1.8-3.5,4.6c0.1,17.4,0.1,34.7,0.1,52.1
		c0,1.3,0,2.7,0,4.3c-4.7,0-9,0-13.6,0c0-18.7,0-37.2,0-56.4c-2.9,0.7-5.4,1.3-7.8,2c-16.6,4.5-33.3,9-49.9,13.3
		c-2.9,0.7-3.7,1.9-3.7,4.8c0.1,19.1,0,38.2,0,57.4c0,1-0.1,2-0.1,3.2c-4.4,0-8.7,0-13.5,0c0-20,0-40.1,0-60.7
		c-10.5,2.8-20.4,5.4-30.6,8.1c0-11.5,0-22.6,0-34.2c8.5-2.3,16.9-4.9,25.5-6.8c3.8-0.9,5.1-2.3,5.1-6.4
		c-0.2-24.1-0.1-48.2-0.1-72.4c0-1.6,0-3.2,0-5.6c-10.3,2.7-20.2,5.3-30.4,8C354.2,179.3,354.2,168.2,354.2,156.8z M459.6,163
		c-1.6,0.4-2.8,0.6-4,0.9c-17.8,4.8-35.6,9.7-53.5,14.3c-3,0.8-3.6,2-3.6,4.8c0.1,24.9,0,49.7,0,74.6c0,1.3,0,2.7,0,4.7
		c20.7-5.6,40.9-11,61.1-16.4C459.6,218.2,459.6,190.9,459.6,163z"/>
	<path class="st0" d="M459.6,163c0,27.8,0,55.1,0,82.8c-20.2,5.4-40.4,10.9-61.1,16.4c0-2,0-3.3,0-4.7c0-24.9,0.1-49.7,0-74.6
		c0-2.8,0.7-4.1,3.6-4.8c17.9-4.6,35.7-9.5,53.5-14.3C456.8,163.6,458,163.4,459.6,163z"/>
</g>
</svg>
