<?xml version="1.0" encoding="utf-8"?>
<!-- Generator: Adobe Illustrator 25.0.0, SVG Export Plug-In . SVG Version: 6.00 Build 0)  -->
<svg version="1.1" id="Calque_1" xmlns="http://www.w3.org/2000/svg" xmlns:xlink="http://www.w3.org/1999/xlink" x="0px" y="0px"
	 viewBox="0 0 370 134.6" style="enable-background:new 0 0 370 134.6;" xml:space="preserve">
<style type="text/css">
	.st0{fill:#FFFFFF;}
</style>
<g>
	<path class="st0" d="M0,30.6C10.6,24.7,21.2,18.9,31.8,13c7.3-4.1,14.6-8.3,22.8-13c0,7.6,0.2,14.2-0.2,20.7
		c-0.1,1.4-1.9,2.9-3.4,3.8c-4.6,2.9-9.5,5.5-14.2,8.3c-1.5,0.9-2.9,2-5.1,3.5c2.6,1.7,4.3,3.1,6.2,4.2c6.2,3.6,12.3,7.3,18.6,10.7
		c1.6,0.9,4.2,1.8,5.5,1.1c8.9-4.8,17.6-9.9,27.2-15.5c-2-1.6-3.2-2.9-4.6-3.7c-4.3-2.6-8.5-5.2-13-7.4c-3.9-1.9-5.7-4.4-5.3-9
		c0.5-5.2,0.1-10.5,0.1-16.8C76.2,5.7,85.1,10.7,94,15.8c7.8,4.5,15.6,8.8,23.3,13.5c1.3,0.8,2.8,2.6,2.8,3.9
		c0.2,20,0.1,39.9,0.1,60.8c-6.9-3.9-13.2-7.4-19.3-11.3c-1.1-0.7-1.6-3.1-1.7-4.7c-0.2-7.3-0.1-14.6-0.1-23.1
		c-6.9,4-12.6,8-18.9,10.7c-7.7,3.3-10.4,8.3-9.5,16.5C71.6,89,71,96,71,104.1c7-4,13.2-7.4,19.1-11.1c2.9-1.9,5.2-1.8,8.1,0
		c5.3,3.4,10.8,6.4,16.8,9.9c-15.3,8.8-30.1,17.3-44.8,25.9c-3.1,1.8-6.1,3.9-9.2,5.8c-0.3,0-0.7,0-1,0
		c-17.9-10.6-35.8-21.2-54.2-32c2.9-1.8,5.6-2.9,7.7-4.7c8.5-7.3,16.7-7.4,25.3,0c2.7,2.4,6.3,3.7,10.7,6.2c0-6.1,0.1-10.5,0-15
		c-0.1-6,1.7-13.1-0.9-17.6c-2.8-4.7-9.8-6.8-15-10c-3.7-2.3-7.6-4.4-11.3-6.4c-0.8,1-1.1,1.2-1.1,1.5c-0.1,7-0.4,14-0.2,20.9
		c0.1,3.1-1,4.8-3.7,6.2C11.4,86.8,5.7,90.3,0,93.6C0,72.6,0,51.6,0,30.6z"/>
	<path class="st0" d="M370,50.6c-3.3,9-6.6,17.9-9.8,26.9c-2,5.5-3.7,11-5.6,16.5c-5.4,15.8-10.3,18.8-27.5,16.3
		c-0.1-1.7-0.3-3.5-0.4-5.2c-0.1-1.6,0-3.3,0-4.8c0.5-0.3,0.8-0.6,1.1-0.6c10.9-0.7,12-2.3,8-12.9c-4.7-12.2-9.4-24.4-14.6-37.6
		c5.1,0,9.5-0.2,13.8,0.1c0.9,0.1,2.1,1.8,2.5,3c2.8,8.7,5.5,17.4,8.3,26.8c2.2-7.3,4.2-14.2,6.4-21c3.7-10.9,0.6-8.7,12.4-8.9
		c1.8,0,3.6,0.3,5.4,0.4C370,50,370,50.3,370,50.6z"/>
	<path class="st0" d="M190.9,34.3c5.6,0,10.5,0,15.6,0c0,14.5,0.8,28.8-0.3,42.9c-0.9,11.8-9.3,18.1-22.4,19.3c-3,0.3-6,0.2-9-0.1
		c-14.4-1.5-21.8-8.6-22.4-22.6c-0.6-13-0.1-26-0.1-39.4c5.2,0,10.3,0,15.9,0c0,9.2,0,18.3,0,27.4c0,3.5-0.1,7,0,10.5
		c0.2,7.9,3.8,11.5,11.3,11.4c7.5-0.1,11.3-3.8,11.3-11.5c0.1-10.7,0-21.3,0-32C190.9,38.6,190.9,36.7,190.9,34.3z"/>
	<path class="st0" d="M229,95.4c-5.1,0-9.7,0-14.6,0c0-15.4,0-30.7,0-46.4c4.8,0,9.4,0,14.1,0c0.2,1.8,0.4,3.4,0.6,5.6
		c5-5.5,10.7-8,17.7-6.6c6.6,1.3,11,5.7,12.2,12.3c0.4,2.3,0.6,4.6,0.6,6.9c0.1,9.3,0,18.6,0,28.1c-5.1,0-9.7,0-14.8,0
		c0-7.8,0-15.4,0-23c0-1.8,0.1-3.7-0.1-5.5c-0.5-3.6-2.3-6.3-6.2-6.8c-3.9-0.5-6.9,1.3-8.3,4.9c-0.8,1.9-1,4.2-1.1,6.3
		C228.9,79.3,229,87.2,229,95.4z"/>
	<path class="st0" d="M316.8,49c0,4,0,7.6,0,11.6c-2.6,0.2-5.2,0.4-8.3,0.6c0,6.8-0.6,13.4,0.3,19.9c0.3,2,4.5,3.4,6.9,5.1
		c0.4-0.4,0.7-0.7,1.1-1.1c0,3.4,0,6.8,0,10.4c-2,0.3-3.7,0.6-5.5,0.8c-11.9,1.2-17.1-3.5-17.2-15.4c0-6.5,0-12.9,0-19.6
		c-2.1-0.2-3.9-0.4-5.9-0.7c0-3.7,0-7.4,0-11.3c1.7-0.2,3.5-0.5,5.7-0.8c0-4.5,0-9.1,0-14c4.9,0,9.3,0,14.4,0c0,4.7,0,9.3,0,14.1
		C311.3,48.7,313.7,48.8,316.8,49z"/>
	<path class="st0" d="M281.9,95.3c-5,0-9.5,0-14.2,0c0-15.4,0-30.7,0-46.2c4.8,0,9.4,0,14.2,0C281.9,64.6,281.9,79.8,281.9,95.3z"/>
	<path class="st0" d="M267.8,30.7c4.7,0,9.1,0,14,0c0,3.8,0,7.5,0,11.6c-4.4,0-9,0-14,0C267.8,38.7,267.8,35,267.8,30.7z"/>
</g>
</svg>
