<?xml version="1.0" encoding="utf-8"?>
<!-- Generator: Adobe Illustrator 25.0.0, SVG Export Plug-In . SVG Version: 6.00 Build 0)  -->
<svg version="1.1" id="Calque_1" xmlns="http://www.w3.org/2000/svg" xmlns:xlink="http://www.w3.org/1999/xlink" x="0px" y="0px"
	 viewBox="0 0 384 384" style="enable-background:new 0 0 384 384;" xml:space="preserve">
<style type="text/css">
	.st0{fill:#777777;}
	.st1{fill:#FFFFFF;}
</style>
<g>
	<path class="st0" d="M177.8,0c0.3,0,0.5,0,0.8,0c0,21.7-0.1,43.5,0,65.2c0,2.8-0.9,4.2-3.2,5.5c-18.8,10.8-37.6,21.7-56.4,32.6
		c-4.3,2.5-4.3,4.6,0,7.1c22.8,13.2,45.6,26.3,68.3,39.6c3.9,2.3,7.1,2.4,11.1,0.1c19.1-11.3,38.4-22.3,57.6-33.4c4-2.3,8-4.6,12-7
		c2.5-1.5,2.6-3.5,0.4-5.4c-0.9-0.8-2.1-1.4-3.2-2c-17.7-10.3-35.3-20.6-53.2-30.7c-3.6-2-5-4.1-4.9-8.3c0.2-21.1,0-42.2,0-63.3
		c0.3,0,0.5,0,0.8,0c1.4,0.9,2.8,2,4.3,2.8c48.7,28.3,97.4,56.5,146.1,84.7c2.6,1.5,3.5,3.1,3.5,6.1c-0.1,56.7-0.1,113.5-0.1,170.2
		c0,1.3,0,2.6,0,4.4c-1.1-0.5-1.7-0.7-2.2-0.9c-18.3-10.2-36.6-20.5-54.9-30.7c-2.1-1.1-2.3-2.6-2.3-4.5c0-21.9,0-43.7,0-65.6
		c0-5.6-1.7-6.5-6.5-3.7c-22.8,13.2-45.6,26.4-68.5,39.4c-3.5,2-4.9,4.6-4.9,8.5c0.1,26.5,0,53,0,79.5c0,6.1,1.6,7,6.8,4
		c18.6-10.7,37.2-21.5,55.7-32.3c2-1.2,3.5-1.6,5.7-0.2c4.6,3,9.5,5.6,14.2,8.3c13.9,8.1,27.9,16.1,42.3,24.5
		c-1.8,1.1-3.3,2-4.8,2.9c-31.5,18.2-62.9,36.3-94.4,54.5c-18.5,10.7-36.9,21.4-55.3,32.2c-0.3,0-0.5,0-0.8,0c-1-0.7-2-1.4-3.1-2
		c-42-24.3-84.1-48.7-126.1-73c-8.2-4.7-16.4-9.5-24.9-14.5c1.3-0.8,2.2-1.4,3.1-2c17.3-10,34.6-20,51.8-30.1c3-1.8,5.1-1.6,8,0.1
		c18.3,10.8,36.7,21.3,55.1,31.9c3.9,2.2,5.7,1.4,5.7-2.5c0-27.1-0.2-54.2,0-81.3c0-4.6-1.8-7.3-5.7-9.5
		c-22.4-12.8-44.8-25.8-67.2-38.7c-5.1-3-7.3-1.7-7.3,4.3c0,21.4-0.1,42.7,0.1,64.1c0,2.7-0.8,4.2-3.2,5.6
		c-17.5,10.1-35,20.3-52.5,30.5c-1,0.6-2.1,1.1-3.6,1.9c0-1.8,0-2.9,0-4c0-57.2,0-114.5-0.1-171.7c0-2.6,0.9-4,3.1-5.2
		c41.4-23.7,82.7-47.5,124.1-71.2C158.9,11.2,168.3,5.5,177.8,0z"/>
	<path class="st1" d="M177.8,0c-9.4,5.5-18.8,11.2-28.3,16.6C108.1,40.4,66.7,64.2,25.4,87.9c-2.2,1.3-3.1,2.6-3.1,5.2
		c0.1,57.2,0.1,114.5,0.1,171.7c0,1.1,0,2.2,0,4c1.5-0.8,2.6-1.3,3.6-1.9c17.5-10.2,34.9-20.4,52.5-30.5c2.4-1.4,3.2-2.9,3.2-5.6
		c-0.1-21.4-0.1-42.7-0.1-64.1c0-6,2.1-7.3,7.3-4.3c22.4,12.9,44.7,25.9,67.2,38.7c3.9,2.2,5.7,4.9,5.7,9.5c-0.1,27.1,0,54.2,0,81.3
		c0,3.9-1.9,4.7-5.7,2.5c-18.4-10.6-36.8-21.2-55.1-31.9c-2.9-1.7-5-1.9-8-0.1c-17.2,10.2-34.5,20.1-51.8,30.1
		c-0.9,0.5-1.8,1.2-3.1,2c8.5,4.9,16.7,9.7,24.9,14.5c42,24.3,84.1,48.7,126.1,73c1.1,0.6,2.1,1.4,3.1,2c-64,0-128,0-192,0
		C0,256,0,128,0,0C59.3,0,118.5,0,177.8,0z"/>
	<path class="st1" d="M192.8,384c18.4-10.7,36.9-21.5,55.3-32.2c31.4-18.2,62.9-36.3,94.4-54.5c1.5-0.9,2.9-1.8,4.8-2.9
		c-14.4-8.3-28.3-16.4-42.3-24.5c-4.8-2.8-9.6-5.3-14.2-8.3c-2.2-1.4-3.7-1-5.7,0.2c-18.6,10.8-37.1,21.5-55.7,32.3
		c-5.3,3-6.8,2.1-6.8-4c0-26.5,0-53,0-79.5c0-3.9,1.4-6.5,4.9-8.5c22.9-13.1,45.7-26.3,68.5-39.4c4.9-2.8,6.5-1.9,6.5,3.7
		c0,21.9,0,43.7,0,65.6c0,2,0.2,3.4,2.3,4.5c18.3,10.2,36.6,20.5,54.9,30.7c0.5,0.3,1.1,0.5,2.2,0.9c0-1.8,0-3.1,0-4.4
		c0-56.7,0-113.5,0.1-170.2c0-3-0.9-4.6-3.5-6.1c-48.7-28.2-97.4-56.4-146.1-84.7c-1.5-0.9-2.9-1.9-4.3-2.8C266.5,0,325.2,0,384,0
		c0,127.9,0,255.8,0,384C320.3,384,256.5,384,192.8,384z"/>
	<path class="st1" d="M207,0c0,21.1,0.2,42.2,0,63.3c0,4.2,1.4,6.3,4.9,8.3c17.8,10.1,35.5,20.4,53.2,30.7c1.1,0.6,2.2,1.2,3.2,2
		c2.3,1.9,2.2,3.8-0.4,5.4c-3.9,2.4-8,4.7-12,7c-19.2,11.1-38.5,22.1-57.6,33.4c-4,2.3-7.2,2.2-11.1-0.1
		c-22.7-13.3-45.5-26.4-68.3-39.6c-4.3-2.5-4.3-4.6,0-7.1c18.8-10.9,37.5-21.8,56.4-32.6c2.4-1.3,3.3-2.8,3.2-5.5
		c-0.1-21.7,0-43.5,0-65.2C188,0,197.5,0,207,0z"/>
</g>
</svg>
