<?xml version="1.0" encoding="utf-8"?>
<!-- Generator: Adobe Illustrator 27.0.1, SVG Export Plug-In . SVG Version: 6.00 Build 0)  -->
<svg version="1.1" id="Layer_1" xmlns="http://www.w3.org/2000/svg" xmlns:xlink="http://www.w3.org/1999/xlink" x="0px" y="0px"
	 viewBox="0 0 384 384" style="enable-background:new 0 0 384 384;" xml:space="preserve">
<style type="text/css">
	.st0{fill:#FFFFFF;}
</style>
<g>
	<path class="st0" d="M191.63,384c-63.88,0-127.75,0-191.63,0C0,256,0,128,0,0c128,0,256,0,384,0c0,128,0,256,0,384
		c-63.63,0-127.25,0-190.88,0c1.44-0.94,2.84-1.95,4.33-2.82c48.52-28.08,97.05-56.14,145.58-84.21c1.34-0.77,2.62-1.64,4.04-2.53
		c-0.56-0.46-0.82-0.74-1.14-0.93c-18.51-10.79-37-21.63-55.6-32.26c-1.2-0.69-3.6-0.35-4.93,0.41
		c-18.72,10.69-37.35,21.54-56.01,32.34c-4.92,2.85-6.47,1.98-6.47-3.67c-0.02-26.62,0.03-53.25-0.05-79.87
		c-0.01-3.79,1.34-6.24,4.68-8.15c22.8-13.08,45.52-26.3,68.27-39.47c5.02-2.9,6.63-1.97,6.63,3.87
		c0.01,21.62,0.04,43.25-0.05,64.87c-0.01,2.51,0.66,3.99,2.92,5.29c17.62,10.13,35.16,20.4,52.73,30.62
		c1.03,0.6,2.12,1.1,3.57,1.84c0-1.95,0-3.42,0-4.9c0-42.5,0-85,0-127.5c0-14.62,0.05-29.25-0.08-43.87
		c-0.01-1.29-0.82-3.18-1.85-3.78C309.9,60.22,260.07,31.28,210.24,2.33c-0.6-0.35-1.29-0.54-2.53-1.05c0,1.8,0,3.13,0,4.46
		c0,19.25,0.1,38.5-0.09,57.75c-0.03,3.6,1.11,5.62,4.21,7.39c18.09,10.31,36.08,20.8,54.1,31.25c5.96,3.46,5.96,5.85-0.03,9.32
		c-22.44,13.01-44.93,25.93-67.3,39.06c-3.82,2.24-6.97,2.2-10.74,0c-22.61-13.21-45.31-26.27-67.98-39.39
		c-5.3-3.07-5.29-5.57,0.09-8.69c18.33-10.65,36.65-21.33,55.05-31.86c2.63-1.5,3.59-3.19,3.57-6.22
		c-0.13-19.62-0.06-39.25-0.08-58.87c0-1.3-0.13-2.6-0.23-4.36c-1.53,0.75-2.55,1.17-3.49,1.72c-49.51,28.48-99,56.99-148.54,85.42
		c-2.24,1.29-2.99,2.72-2.99,5.28c0.07,57,0.06,114,0.06,170.99c0,1.06,0.1,2.13,0.17,3.5c0.88-0.39,1.46-0.58,1.97-0.88
		c18.11-10.53,36.19-21.1,54.35-31.55c2.21-1.27,2.24-2.96,2.24-5.01c-0.03-21.5-0.03-43-0.01-64.5c0.01-5.6,2.43-6.98,7.28-4.18
		c22.56,13.04,45.08,26.14,67.69,39.09c3.8,2.18,5.39,5.03,5.37,9.39c-0.11,26-0.04,52-0.06,78c0,6.32-2.47,7.78-7.8,4.69
		c-18.33-10.64-36.69-21.24-54.97-31.97c-2.23-1.31-3.85-1.26-6.05,0.04c-16.1,9.51-32.29,18.88-48.44,28.3
		c-2.23,1.3-4.46,2.62-7.03,4.13c1.44,0.88,2.48,1.54,3.54,2.16c48.99,28.6,97.99,57.19,146.97,85.81
		C189.68,382.2,190.61,383.18,191.63,384z"/>
	<path class="st0" d="M191.63,384c-1.01-0.82-1.94-1.8-3.06-2.45c-48.98-28.62-97.98-57.21-146.97-85.81
		c-1.06-0.62-2.1-1.28-3.54-2.16c2.57-1.51,4.79-2.83,7.03-4.13c16.16-9.42,32.34-18.79,48.44-28.3c2.2-1.3,3.82-1.35,6.05-0.04
		c18.28,10.73,36.64,21.33,54.97,31.97c5.32,3.09,7.79,1.63,7.8-4.69c0.02-26-0.05-52,0.06-78c0.02-4.36-1.57-7.22-5.37-9.39
		c-22.61-12.95-45.13-26.06-67.69-39.09c-4.85-2.8-7.28-1.42-7.28,4.18c-0.03,21.5-0.02,43,0.01,64.5c0,2.05-0.03,3.74-2.24,5.01
		c-18.16,10.44-36.24,21.02-54.35,31.55c-0.51,0.3-1.09,0.49-1.97,0.88c-0.07-1.37-0.17-2.43-0.17-3.5
		c-0.01-57,0.01-114-0.06-170.99c0-2.56,0.74-3.99,2.99-5.28C75.8,59.83,125.29,31.32,174.8,2.84c0.95-0.54,1.96-0.97,3.49-1.72
		c0.1,1.75,0.23,3.06,0.23,4.36c0.01,19.62-0.05,39.25,0.08,58.87c0.02,3.02-0.95,4.71-3.57,6.22
		c-18.4,10.53-36.72,21.21-55.05,31.86c-5.38,3.12-5.4,5.62-0.09,8.69c22.67,13.12,45.37,26.17,67.98,39.39
		c3.77,2.2,6.91,2.25,10.74,0c22.37-13.13,44.86-26.05,67.3-39.06c5.99-3.47,5.99-5.86,0.03-9.32c-18.01-10.45-36-20.94-54.1-31.25
		c-3.1-1.77-4.24-3.79-4.21-7.39c0.18-19.25,0.09-38.5,0.09-57.75c0-1.33,0-2.66,0-4.46c1.24,0.51,1.93,0.7,2.53,1.05
		c49.83,28.94,99.66,57.88,149.42,86.94c1.03,0.6,1.84,2.49,1.85,3.78c0.13,14.62,0.08,29.25,0.08,43.87c0,42.5,0,85,0,127.5
		c0,1.48,0,2.95,0,4.9c-1.45-0.74-2.54-1.24-3.57-1.84c-17.57-10.22-35.11-20.49-52.73-30.62c-2.26-1.3-2.93-2.78-2.92-5.29
		c0.09-21.62,0.06-43.25,0.05-64.87c0-5.84-1.61-6.77-6.63-3.87c-22.75,13.17-45.47,26.39-68.27,39.47
		c-3.34,1.91-4.69,4.36-4.68,8.15c0.08,26.62,0.04,53.25,0.05,79.87c0,5.65,1.56,6.51,6.47,3.67c18.66-10.8,37.29-21.65,56.01-32.34
		c1.33-0.76,3.73-1.1,4.93-0.41c18.6,10.63,37.09,21.46,55.6,32.26c0.32,0.18,0.58,0.47,1.14,0.93c-1.42,0.89-2.7,1.76-4.04,2.53
		c-48.52,28.07-97.05,56.13-145.58,84.21c-1.49,0.86-2.89,1.87-4.33,2.82C192.62,384,192.12,384,191.63,384z"/>
</g>
</svg>
